<?xml version="1.0" encoding="utf-8"?>
<!-- Generator: Adobe Illustrator 16.0.0, SVG Export Plug-In . SVG Version: 6.00 Build 0)  -->
<!DOCTYPE svg PUBLIC "-//W3C//DTD SVG 1.1//EN" "http://www.w3.org/Graphics/SVG/1.1/DTD/svg11.dtd">
<svg version="1.1" id="Capa_1" xmlns="http://www.w3.org/2000/svg" xmlns:xlink="http://www.w3.org/1999/xlink" x="0px" y="0px"
	 width="117.8px" height="244.1px" viewBox="0 0 117.8 244.1" enable-background="new 0 0 117.8 244.1" xml:space="preserve">
<g>
	<g>
		<path fill="#FF1400" stroke="#FF1400" stroke-width="2" stroke-miterlimit="10" d="M9,128.6c0.5-1.5,0.5-1.5,1.2-2.1
			c3.9-3.9,14.8-13.9,14.8-13.9l9.2-7l14.9-6.2c0,0,4.5-1,6.2-0.8c1.7,0.2,9.7,1,10.8,1.601c1.101,0.6,2.8-0.301,4.399,5.399
			c1.601,5.7,0.801,5.101,0.9,7.2s-0.9,4.2-0.9,4.2v2.8l-6.799,4.6L52,134.9l-5.7,8.601l-2.5-3.101l-4.6-1.699l-10-3.5l-8.1-2.5
			l-5.9-1.601l-3.5,1l-1.5,1.3L9.4,133l-1.2-1.2v-2.2L9,128.6z"/>
		<path fill="#FF1400" stroke="#FF1400" stroke-width="2" stroke-miterlimit="10" d="M4.8,172.9c0,0,2.6-0.899,3.9-1.399
			c1.3-0.5,6.9-3.4,7.4-3c0.5,0.399,1.6,1.3,1.6,1.3s0,2.8,1.9,3.7c1.9,0.899,5.7-0.601,9.7-2c4-1.4,20.8-7,21.5-9.3
			c0.7-2.301,0.7-1.9-0.9-4.5c-1.5-2.4-2.2-1.7,0.2-2.4s7.5-3.2,9.5-4s4.2-1.8,5.899-2.3c1.701-0.5,2.9-0.7,2.9-0.7
			s1.1-0.8,0.301,1.8c-0.801,2.7-3.601,13.4-3.601,13.4L62,175.2l-3.5,11.3l-5.4,17.1l-2.8,7.601l-3.5,5.3l-8,4.5l-12.2,4.8l-7.1,3
			l-5.6-1.5c0,0-3.3-0.6-4.2-5.9c-0.9-5-1.8-12.199-1.9-13.199c-0.1-1-3.4-15.301-3.4-15.301l-1.3-9.6L4.8,172.9z"/>
		<path fill="#FF1400" stroke="#FF1400" stroke-width="2" stroke-miterlimit="10" d="M53.5,210.9c0,0,3.1,1,5.6,1.601
			c2.5,0.6,5.2,1.1,7.101,1.6c1.899,0.5,10.899,3.2,12.399,3.8c1.5,0.601,9,1.4,10.601,1.601c1.6,0.2,3.5,0.5,3.5,0.5
			s2.6-7.4,3.199-9.101C96.5,209.2,103.8,185,104,184c0.201-1,5.101-18.601,5.201-19.4c0.1-0.8,0.5-3.1,0.5-3.1l-1.9-0.3l-4-1.4
			L90,156.2L74.9,152l-1.199-1.601l-0.801-1.5l-0.8,0.9L67,168.5L57.4,199.4L53.5,210.9z"/>
		<path fill="#FF1400" stroke="#FF1400" stroke-width="2" stroke-miterlimit="10" d="M23.7,230.1c0,0,9.7-3.6,10.6-4
			c0.9-0.399,14-6.7,15.2-8.2s2.6-4.3,2.6-4.3l8.601,2.5L78.5,221.2l13.201,2c0,0-0.9,3.399-6.601,5.6S77,231,77,231
			s-3.199,1.1-3.299,1.8c-0.101,0.7-0.801,2-1.601,1.8s-1.399-1.8-2.601-1.5c-1.199,0.3-6.299,2.101-7.799,2.7
			s-8.101,1.9-10.401,1.7c-2.3-0.2-7.1-1.601-9.6-2.4s-8.6-2.899-10.9-3.399c-2.3-0.5-7.6-1.5-7.6-1.5"/>
	</g>
	<path fill="#FF1400" stroke="#FF1400" stroke-width="2" stroke-miterlimit="10" d="M74.3,103.3c0,0,10.5,3.9,12.199,4.4
		c1.701,0.5,9.4,3.1,10.301,3.399s0.9,0.3,0.9,0.3s-4.9,0.4-7.301,0.801c-2.4,0.399-6.1,1.1-7.8,1.8s-5.8,2.8-8.399,4.1
		c-0.4,0.2-0.5,0.4-0.5,0.4L74.3,103.3z"/>
</g>
<path fill="#FF1400" stroke="#FF1400" stroke-miterlimit="10" d="M117.3,111.8c-0.2-1.2-1.2-1.7-1.2-1.7c-2-1-10.899-3-14.3-4
	s-24-7.6-25.4-7.899c-1.4-0.301-3.1-0.5-3.1-0.5S73,99,71.9,98.5s0-1.2-0.8-1.5s-0.8,0.3-4.3-0.5s-4.7-1.3-6.301-1.7
	c-1.6-0.3-1.6,0.7-2.899-0.1c-1.3-0.801-1-3.801-0.8-5.601c0.2-1.8,1.8-0.5,1.6-1.7c-0.2-1.199,1.2-2.6-1.5-2.8
	c-2.7-0.2-2.3,0.8-6.7-2.3c-4.4-3.1-9.6-8.8-9.8-15.3c-0.2-6.5,2.2-16.101,3-19.2c0.8-3.1,4.7-18.7,4.7-18.7s1.8-4,3.2-5.3
	c1.4-1.3,1-1.3,2.3-1.7c1.3-0.399,0.3-1,1.3-0.3s-0.917,1.667,0.917,4.25c3.083,2.25,8.499-0.208,10.743-2.377
	c3.008-3.373,3.986-6.891,2.903-10.724c-2.333-3.667-4.614-3.023-6.27-2.917C61.293,9.433,60.201,10.5,61.8,6.1
	c0,0,0.199-0.399,1.4-1.3C64.4,3.9,65.5,4.1,65.8,4.4C66.1,4.7,67,3.2,66.3,2.4c-0.7-0.8-2.1-1-2.301-0.8
	c-0.199,0.2-0.299,1-0.699,1.3C62.9,3.2,62.1,2.9,62,1.6c-0.1-1.2,0.601-1.3-0.799-1C59.8,0.9,55,5.4,55,5.4S55.4,7,54.4,7
	s-1.7-2.4-2.7-2.9S51,2.8,50,3.6s0.2,2.3-1.3,2.4c-1.5,0.1-0.9-0.601-3.1-1.7c-2.2-1.1-1.2-1.3-3.5-1.5c-2.3-0.2-1.2-1.3-2.4-1.8
	c-1.2-0.5-1.9,1.1-2,1.7c-0.1,0.6,1.3,2.5,2.8,2.5s3.4-0.601,4.9,0.3c1.5,0.899,2.5,1.7,1.7,2.8c-0.8,1.1-1.3,1.8-3.2,2.1
	C42,10.7,40.7,10.5,38.7,10S36.2,9.3,35.8,7.9c-0.4-1.399-0.3-1.5-1.7-1.5s-1.8,0-2.5,1.2c-0.7,1.2-0.8,3.2,0,3.8
	C32.4,12,33.8,12.2,34.5,12s1.8-1.101,3.1-0.5c1.3,0.6,3.7,1.1,3.3,1.8s-0.8,1.8-1.7,2.8c-0.9,1-1.3,0.8-2,1.9
	c-0.7,1.1-0.8,1.8-0.1,2.899C37.8,22,38,21.7,39.2,21.7c1.2,0,1.5-1.601,2.5-2.5c1-0.9,1.6-1.7,2.6-1.5c1,0.199,0.7,0.699,1.9,0.899
	c1.2,0.2,2.4,0,1.8,0.9c-0.6,0.899-4.9,4.1-7.8,17.2c-2.9,13.1-5.8,28.1-5.8,29.5c0,1.399,2,17.1,17.6,23.699c0,0,0.9,0,1.3,0.301
	c0.4,0.3,0.9,2.3,0.3,2.899C53,93.7,41.9,97.4,38,99.4c0,0-10.2,5.5-12.6,7.301c-2.4,1.8-16.8,16-18.1,17.8c-1.3,1.8-3.4,5.5-3,6.7
	c0.4,1.199,1.6,0.6,1.4,2.5C5.5,135.6,4.8,141.9,4.2,147.6c-0.6,5.7-2.1,23.5-2.1,23.5S1.4,171.6,1,172c-0.4,0.399-0.8,1.2-0.3,1.7
	s0.9,1,0.8,3.399c-0.1,2.4-0.5,9.7-0.5,9.7s6,29.3,5.8,30.8c-0.2,1.5-0.1,0.601,0.6,3.3c0.7,2.7,1.4,8.301,5.5,9.5
	c4.1,1.2,11.5,2.5,13.2,2.801c1.6,0.3-1.1,1.1-2.9,0.699c-2-0.5-4,0.2-4.8,0.801c-0.8,0.6-1.8,3.399-1.4,4.6s3.1,1.4,6.4,2
	c3.3,0.6,9.7,2.7,11.2,2.4c1.5-0.301,2.3-2.101,3.7-2.2c1.4-0.101,2.7-1.5,4.2-1.2s1.4,0.4,2.1-0.2c0.7-0.6-8-2.7-6.7-3.1
	c0.8-0.3,8,2.3,10.5,2.8c1.4,0.3,3.7,0.6,5.7,0.2c2-0.4,2.5-0.4,3.2-0.4c1,0,9.7-2.7,11.3-3.2s1.8,1,3.2,1.101
	c1.4,0.1,1.8-1.2,3.1-1.4c1.301-0.2-0.199-1.5,2.1-2.1c2.301-0.601,7.101-2.2,9-2.601c1.9-0.399,6.601-2.3,9.801-11.1
	c3.199-8.8,8.699-28.2,10.9-35.2c0.799-2.5,5.1-17.3,5.399-20.399c0.3-3.101,0.399-3.301,0.899-3.801S112.8,160,112.6,159.1
	c-0.2-0.899,0.601-21.2,0.601-21.8c0.1-1.3,0.1-19.5,2.899-22.8C116.5,113.7,117.5,112.9,117.3,111.8z M8.1,129.2
	C8.9,127.3,9,127.6,11,125.1s6.8-6.5,10.2-10c3.4-3.5,6.6-6,11.2-9.2c4.6-3.199,14.5-6.3,18.8-7.3c1.2-0.3,4.6-0.399,7.5-0.2
	c2.9,0.2,7.299,0.9,9.1,1.5c0.1,0,0.4,0.2,0.9,0.301c0,0,1,1.6,1.6,2.8s1.5,4,1.5,4c0.5,2.2,0.5,3.6,0.4,5
	C72,113.5,71.5,118.6,70.5,124.3s-1.399,20.2-2,21.1c-0.6,0.9-3.5,0.9-4.399,1.2s-12.4,5.2-15.7,6.8c-1.5,0.7-2.1,1.4-2.2,2.2
	c0.1-2,0.3-5.2,0.8-6.7c0.8-2.199,6-11.699,12.1-16.8c0,0,4.101-4,5.399-4.7c1.301-0.699,6.301-4.1,6.301-4.1l0.5-3
	c0,0-2.2,1.2-3.801,2.4c-1.6,1.199-2.799,1.8-4.399,3.1c-1.601,1.2-10.6,10-11.6,11.2s-4.9,8.1-4.9,8.1s-0.1-0.6-0.5-1.6
	s-0.7-1.601-2.2-2.3c-1.5-0.7-1.3-0.4-4.2-1.4c-2.9-1-3.4-1.2-6.2-2.2s-8.7-3-11.1-3.8s-3-0.7-5-1.4c-2-0.699-2.9-0.699-3.7-0.3
	c-0.8,0.4-1.8,1.101-2,1.3c-0.2,0.2-0.4,1.101-1.1,0.9c-0.7-0.2-2.1-1.1-2.1-1.1L8.4,135c0.1-1.101,0-2.2-0.1-2.8
	C7.5,130.7,7.4,131,8.1,129.2z M71.701,147.9L71.701,147.9C71.6,147.9,71.701,147.9,71.701,147.9L71.701,147.9z M71.6,147.9
	C71,147.6,69.8,147.5,69.5,147.5c0.601,0,1,0.1,1,0.1C70.8,147.6,71.4,147.7,71.6,147.9z M46,156c0,0.7,0.5,1.399,1,1.899
	c1,1,1.4,1.801,1.2,3.101c-0.1,0.899-2.1,1.6-4.6,2.399l2.3-0.8v-5.5C46,157.2,46,156.7,46,156z M6.4,152.7
	c0.1-2,1.4-13.601,1.4-13.601s0.2-1.7,0.4-3.399c0,0,0.5,1.5,1,2s0.8,0.6,1.8,0.8s1.2,0.6,1.5-1c0.3-1.601,0-2.101,1.2-2.601
	c1.2-0.5,1.1-0.6,3.5,0c2.4,0.601,3.5,1,5.2,1.7c1.7,0.7,2.4,0.8,2.4,2.8s-0.2,2.601,1.4,2.9c1.6,0.3,2.2-1.4,2.4-2.8
	c0.2-1.4,1-1.2,2.6-0.4c1.6,0.8,9,3.2,9,3.2s3.9,1.2,4.1,3.2c0.2,2-0.6,18.1-0.6,18.1c-1.5,0.5-3.2,1-4.8,1.7
	c-4.4,1.8-9.8,3.8-12,4.6c-2.2,0.801-5.2,2.5-6,1.4c-0.8-1.1-2-4.9-2.8-5.4c-0.8-0.5-2.8,0.5-3.8,0.9s-4.1,1.4-5.4,1.9
	c0,0-2.2,0.5-3.1,0.699c-0.9,0.2-1,0.101-1,0.101v0.2l0.3-3.801C5.2,164.4,6.2,154.7,6.4,152.7z M87.3,228.7c-1.6,1-4.7,1.6-6.2,2.1
	s-2.899,0.9-5.2,1.6c-2.3,0.7-1.199,1.601-2,2.101c-0.8,0.5-1.8,0.899-2.3,0.899s-0.8-0.899-1.399-1.199
	c-0.601-0.301-0.801-0.301-3,0.6c-2.201,0.9-5.5,1.8-8.901,2.6c-3.4,0.801-7.2,0.9-9.4,0.601c-2.2-0.3-9.2-2.601-11.7-3.4
	s-7.5-2.3-7.8-2.399c-0.3-0.101-12.9-3.301-14.4-3.9s-3.4-1.1-4.4-2.9c-1-1.8-0.8-2.399-1.2-4.1s-0.6-2.4-0.6-3.6
	c0-1.2-0.1-0.801-0.4-3.4c-0.3-2.6-2-9.9-2.8-13.5c-0.8-3.6-1.2-5.6-1.9-8.9c-0.7-3.3-0.6-4.399-0.8-6.5C2.7,183.3,3,182,3.2,178.7
	C3.4,175.4,3.8,175.1,4,174c0.2-1.101,0.6-1.7,0.6-1.7c2.2-0.8,2.2-0.9,4.5-1.9c0,0,3.5-1.1,4.9-1.699
	c1.4-0.601,2.1-1.301,3.2-0.801c1.1,0.5,1.5,2.4,1.6,2.9c0.1,0.5,1,2.9,3.4,2.4c2.4-0.5,6.5-2.301,6.5-2.301
	c3.5-1.3,3.9-1.3,6.8-2.399c2.9-1.101,3.7-1.2,9.6-3.601c3.1-1.199,4-1.5,5.2-2.8c1.1-1.1,0.1-2.899-0.3-3.7
	c-0.4-0.8-2.1-1.899-1.5-2.8c0.8-1.2,3.2-1.399,6.8-3.2c3.3-1.699,3.3-1.699,5.7-2.8c2.101-0.899,2.701-1.1,3.801-1.5
	c1.1-0.399,1.8-0.6,3.1-0.8c0.6-0.1,1.2-0.1,1.7-0.1c0.7,2.199-0.899,6-1.399,8.5c-0.5,2.3-5.601,22-7.101,26.399
	c-1.5,4.5-6.2,19.2-7.5,22.8c-1.2,3.4-2.6,9-6.6,12.2c-1.6,1.3-5.5,3.7-9.5,5.3C33.5,224,29.7,225.2,25.2,227
	c-2,0.8-5.4,2.399-5.4,2.399L21.9,230c2.9-1.3,12.2-4.601,14.4-5.5c6.2-2.7,11.9-5,14.9-9.7c0.3-0.5,0.7-1.2,1.1-2.2l0,0
	c0,0,2.6,1.2,3.9,1.5c2,0.5,5.2,1.5,6.9,1.8C68.3,216.9,73.9,219,79,220.2c5.201,1.3,5.601,1.199,7.701,1.5c3,0.399,6,0.899,6,0.899
	c-0.201,0.5-0.601,1.2-1.101,2C90.4,226.4,88.9,227.7,87.3,228.7z M92.6,222.8l0.7-1.9l-0.4,1C92.9,221.9,92.8,222.2,92.6,222.8z
	 M110.3,163.5c-0.2,2-3.7,14.5-5.801,22c-2.1,7.5-7.799,25.8-9,29.2l-2.199,6.1c0,0-1.2-0.1-3.4-0.3c-4.3-0.5-10.1-1.5-12.8-2.4
	c-2.7-0.899-2.3-0.7-5.8-1.8c-3.5-1-13.6-3.4-15-3.9c-1.4-0.5-3.6-1.3-3.6-1.3c0,0.101-0.1,0.2-0.1,0.3
	C55.7,203.8,61,187.2,62,183.9c1.301-4.199,3.4-11.199,4.4-15c1-3.8,1.7-6.899,2.9-11.699c1.199-4.601,2.699-9,2.699-9
	s1.5-0.2,1.9,0.5c0.4,0.699-0.4,0.8,0.6,1.8s-0.399,0.5,2.701,1.6c3.1,1.101,10.199,2.7,14.299,3.8
	c4.201,1.101,6.201,1.4,8.801,2.101s3.8,1.2,6.199,2c2.4,0.8,2.5,0.5,4.101,0.399v0.2C110.6,160.7,110.4,161.5,110.3,163.5z
	 M52.2,212.7L52.2,212.7L52.2,212.7z M110.701,117.3c-1.201-0.6-1.601-2-2.201-1.6c-0.6,0.399-1.6,1.6-0.5,2.5
	c1.101,0.899,2.101,1,3,1.399c0.9,0.4,1.101,0.601,0.9,2.5c-0.199,1.9-0.9,7.601-0.9,11.4s-0.799,13.1-0.899,16
	c-0.101,2.899,0.5,3.8-0.899,3.899c-1.4,0.101-3.101-1.899-3.601-0.6s-0.399,3.8,0.8,3.4c1.2-0.4,2.7-1.4,3.4-1
	c0.5,0.3,1.199,2.199,1.199,2.199l-0.1,0.801c-1.199,0.6-2.1,0.8-4.1,0.199c-2-0.6-2.9-0.899-6.5-1.899S79,151,77.4,150.2
	c-1.6-0.801,0-3.2-0.4-4.5C76.6,144.4,76.6,144.3,74.8,143.6c-1.801-0.7-2.801,1-2.7-4c0.2-5,0.399-14.1,0.899-17.5l0.801-16.2
	c0.1-3.1,0-3.699,0-3.699l-5.1-2c1.6,0.6,4.799,1.8,5.1,2c0.699,0.3,3,1.399,3,1.399c3.1,1.4,6.1,2.8,10,3.601
	c3.9,0.8,10.6,3.8,12.8,4.399c0.3,0.101,0.601,0.2,1,0.3c-0.3,0-3.101,0.4-4.8,0.5C94,112.6,91.5,112.7,88.9,113.2
	s-9.1,2.899-10.4,3.8c-1.299,0.899-5,2.5-5,2.5l-0.299,2.7c0,0,4.6-3.4,8.1-4.601S88.8,114.9,92,114.7c3.201-0.2,8.701-1,10.5-1
	c1.801,0,3.9-0.101,3.9-0.101l-5.199-1.5c2.5,0.601,6.5,1.5,8.299,2.101c2.101,0.699,4.201,2,4,2.5
	C113.3,117.2,112,117.9,110.701,117.3z"/>
</svg>
