<?xml version="1.0" encoding="utf-8"?>
<!-- Generator: Adobe Illustrator 16.0.0, SVG Export Plug-In . SVG Version: 6.00 Build 0)  -->
<!DOCTYPE svg PUBLIC "-//W3C//DTD SVG 1.1//EN" "http://www.w3.org/Graphics/SVG/1.1/DTD/svg11.dtd">
<svg version="1.1" id="Capa_1" xmlns="http://www.w3.org/2000/svg" xmlns:xlink="http://www.w3.org/1999/xlink" x="0px" y="0px"
	 width="134.671px" height="231.358px" viewBox="0.1 1.686 134.671 231.358" enable-background="new 0.1 1.686 134.671 231.358"
	 xml:space="preserve">
<g>
	<path fill="#FF1400" stroke="#FF1400" stroke-width="2" stroke-miterlimit="10" d="M3.9,123.701c0.5-1.9,8.8-9.401,10.7-11.201
		s23-17.9,32.6-21.5c5.5-2.1,17-5.3,22.7-6.1c5.7-0.8,18.6-0.6,20.801-0.3c1.899,0.3,3.399,0.5,3.6,0.8c0.199,0.3,0.8,10.2,0.8,10.2
		v4.7l-17,5.9l-20.2,10.3l-18.3,15.201l-4.2,5.699l-1.1,1.801h-0.6v-2.4l0.4-0.5l-1.2-1.6l-6.3-2.5l-4-1.4l-11.7-4.5l-5.5-1.5
		L3.9,123.701z"/>
	<path fill="#FF1400" stroke="#FF1400" stroke-width="2" stroke-miterlimit="10" d="M8.9,170.201l9-3.101l19.6-7.2l8.8-3.1l16.6-6.2
		l8.301-3.5l17.199-6.5l6.9-2.8l3.8-0.7l0.3,2.2v3.8v3.8l-1.8,6.2l-5.8,22l-3.9,13.601c0,0-3.4,8.5-4.699,10
		c-1.301,1.5-3.5,4.199-8.4,6.1c-5.1,2-28.4,9-29.4,9.4c-1,0.399-12.3,3.5-12.3,3.5l-5.1-3.5L19.9,201l-7-13.899l-4.8-10.8V172.5
		L8.9,170.201z"/>
	<polygon fill="#FF1400" stroke="#FF1400" stroke-width="2" stroke-miterlimit="10" points="97.4,88.9 97.4,89.3 98.201,99.8 
		104.201,99.8 109.6,99.2 116.1,99 118.4,99.3 119.1,99.4 119.8,99.6 116.201,98.2 114.201,97.3 110.701,95.8 106.5,94 105,93.3 
		103.1,92.8 101.6,91.6 100.8,90.4 100.5,89.4 99,89.2 	"/>
	<path fill="#FF1400" stroke="#FF1400" stroke-width="2" stroke-miterlimit="10" d="M102.1,138l0.2,2.201v3c0,0,0.3,2.399-0.2,4.6
		c-0.5,2.199-2.5,9.6-2.5,9.6l-4.899,17.9L91.5,187.5c0,0-1.799,4.4-0.6,5c1.2,0.601,4.4,2.801,5.2,3
		c0.8,0.201,11.601,4.201,11.601,4.201l5.299,2l4.101,1.699l1.3,0.6c0,0,1.801-4.399,2.2-5.899s7.5-27.7,7.5-27.7l3-12.199l0.8-8.5
		l-2.9-1l-8.5-3.801L114,142L110.1,140.6l-4.601-1.7L102.1,138z"/>
	<path fill="#FF1400" stroke="#FF1400" stroke-width="2" stroke-miterlimit="10" d="M38.5,219.701c0,0,3.2-1.4,5.5-2.101
		s6.8-2.2,8.6-2.7c1.8-0.5,8.1-2.4,10.2-3.1c2.1-0.7,12.1-3.801,13-4.2c0.5-0.3,4.4-1.899,7.1-4.101c2.5-2,3.7-4.6,3.7-4.6
		s0.8-1.199,1.101-1.9C88,196.3,88.5,194.701,88.5,194.701L92,196.9l5.601,2.4l6.8,2.8l8.9,3.3l3.6,1.5v0.301l-1.3,3l-2.8,3.199
		l-3.7,1.1L105.5,215.3l-15,5.1l-9.299,2.9l-7.4,2.4l-7.6,1.899l-5.1-1.2l-13.2-3.9c0,0-11.1-2.699-10.4-2.799"/>
</g>
<path fill="#FFFFFF" stroke="#3E3E3E" stroke-miterlimit="10" d="M99.5,136.4c0,0-0.199,0,0.301,0s0.8,0.2,1.4,0.5"/>
<g>
	<g>
		<g>
			<path fill="#FF1400" stroke="#FF1400" stroke-miterlimit="10" d="M133.9,146.5c-0.5-3.299-1-6.899-2.699-18.799
				c-1.701-11.701-2.4-25.5-2.4-25.5s0.9-0.5,1.5-1.9c0.6-1.4,2.199-1.8-3-4.4C122.1,93.3,99,82,97.6,82S97.201,83.6,96,83.5
				c-1.199-0.1-2.6-1-5.399-1.1s-8,0-8.601-0.5c-0.6-0.5,1.101-4.9,1-7.5c-0.1-2.6-6.1-39.5-7.1-42.1c-1-2.6-1.199-3.1-0.1-4.9
				c1.1-1.8,2.8-1.9,3.9-1c1.1,0.9,2.6,2.2,3.899,0.9c1.3-1.3,2.8-1.6,0.8-4.1s-6.199-9.9-6.8-11C77,11.1,76.201,12.6,75.701,12
				s1.399-0.6-0.101-2s-1.5-2-2.5-1s-1.2,2.2-2,2.6s-3.001,0.575-2.2-0.825c0.799-1.4,1.263-1.189,1.963-2.189
				c0.699-1,1.134-1.243-0.088-3.686c-1.75-3.5-5.75-2.816-9.75-2.264C57.301,3.15,53.15,5.15,50.9,9.525
				c-2.25,5-1.15,7.55,1.75,8.375c2.5,0,1.75-0.6,3.75-1s3.5,2,2.6,2.4c-0.9,0.4-2.5-1-3.6,0s-2.5,2.3-1.9,3.6
				c0.6,1.3,2.1,3.1,4,1.9c1.9-1.2,3.1-3.8,5.5-4c2.4-0.2,2.2,3.5,4,6.1c1.8,2.6,3.6,9.4,5.8,21.4c2.199,12,3.8,18,3.8,22.2
				s-0.899,9.2-2.101,10.4c-1.199,1.2,0.201,0.8-4.5,1.6c-4.7,0.8-17,3.9-19.399,4.8c-1.2,0.4-5.9,2.1-10.5,4.3
				c-4.5,2.2-8.9,4.8-10.6,6c-5.9,4-7,5.2-12.4,9.7c-6,4.9-12.1,10.1-12.8,10.901c-1.4,1.6-2.1,3.799-2.6,4.1
				c-0.5,0.3-1.1,0.4-1.1,1.5s1.6,1.9,2.1,3.199c0.5,1.301,0.6,6.801,1,11.201c0.4,4.399,1,11.1,1,14.199s0.9,11.1,0.6,14
				c-0.3,2.9,0.5,11.4,1.5,13.2s7.1,15.2,8,16.899c0.9,1.701,5.8,11.801,6.6,13.5c0.8,1.701,3.4,6.201,5.5,7.5
				c2.1,1.301,4.2,2.4,6.6,3.201c2.4,0.799,9.8,3,11.9,3.799C47.5,225.3,48,226.3,47,226.1s-5.8-2.101-6.6-1.899
				c-0.8,0.199-1.2,0.199-2.5,0.6c-1.3,0.4-3,0.9-2.8,2c0.2,1.1,5,2.5,7,3.1s6.4,3,7.8,2.6c1.4-0.399,5.4-1.799,6.2-1.899
				c0.8-0.101,2.5,0.5,1.6-0.899c-0.9-1.4-1.2-1-3-1.5c-1.8-0.5-2-1.801-0.2-1.101s7.4,1.899,8.2,2c0.8,0.101,2.1,2,8.9-0.2
				c6.8-2.199,31-9.4,35.5-11.199c4.5-1.801,10.5,1,16.2-19.9c5.699-20.9,10-38.9,10.1-39.2C134.4,154.9,134.5,150.3,133.9,146.5z
				 M122.6,100.2l2.2-0.1c2,0,1.9,0.4,3.6,2c1.7,1.6-1.5,2.7-1.699,3.5c-0.5,1.8,1.399,12.7,2.699,22.3
				c0.9,6.2,1.801,10.801,2.4,14.801c-0.1-0.701-0.1-0.4,0,0.5c0-0.101,0-0.301,0-0.5c0.3,2.1,0.6,4,0.699,6
				c0,0-0.5-3.801-0.699-5.5c-0.2,1.699-3.6-0.101-4.7-0.601s-10-4.601-13.399-6.101c-3.301-1.5-10-4.299-13.201-5.799l0,0
				c0,0-0.199-0.801-0.299-5.4c-0.101-4.6-0.101-1.2-0.801-7.4c-0.699-6.2-0.6-4.4-1.3-12.3c-0.101-1.1-0.101-1.9-0.2-3l-0.1-0.3
				c0,0,1.4-0.3,2.6-0.4c1.2-0.1,4-0.1,6.2-0.3c2.2-0.2,5.7-0.3,7.7-0.3s3,0.2,5.3,0.3s3.101,0,4.5-0.1l2.601-0.9 M99.6,88.5
				c2.2,0.5,1.601,1.1,2.5,2.5s2.5,1.1,4.2,2.1c1.699,1,10.5,4.4,13.6,6c1.4,0.7,2.6,1.1,2.6,1.1s-1.399,0-1.699,0
				c-0.7,0-5-0.4-6.1-0.4c-1.101,0-8.101,0.4-8.101,0.4l-6.5,0.1h-2.5c-0.5-6.3-0.899-12.1-0.899-12.1
				C97.5,88.4,98.5,88.3,99.6,88.5z M4.4,121.4c1.4-1.5,13.6-12.6,16.2-14.8c6.3-5.2,13.5-9.8,19.2-12.6c2.9-1.4,7-3.4,11.4-5
				c2-0.7,15.1-4.3,19.5-4.8c4.399-0.5,13.199-0.6,19.399,0c5.7,0.6,5,1.4,5.2,2.8c0,0-0.2,2.5,0,4.1c0.199,1.6,0.199,1.6,0.3,5.1
				c0.101,1.5,0.2,3,0.3,4.5c-0.199,0.1-5.3,1.6-7.199,2.2c-1.9,0.6-9.9,3.4-12.101,4.5s-15.8,7.8-19.4,10.4
				c-3.6,2.6-14.2,11.6-16.4,14.1c-2.2,2.5-4.9,5.2-5.3,6.801c-0.4,1.6-0.5,1.399-1.4,1.199c-0.9-0.199-1.4,0.2-1-1.8
				s0.8-1.7-0.6-2.5s-1.9-0.899-4.9-2.2c-3-1.3-4.8-1.8-6.2-2.3s-4.9-2-6.9-2.899c-2-0.9-4-1.4-5.6-1.9s-4.3-1-4.3-1l0,0
				c-0.2-0.301-0.5-0.5-0.8-1C3.1,123.4,3,122.9,4.4,121.4z M5.4,131.701l0.1,0.399c0,0,1.5,0.2,2.5,0s1.5-0.3,1.2-1.7
				c-0.2-0.8-0.2-1.1-0.1-1.3c0.4-0.601,1-0.601,1.4-0.5c0.8,0.3,2.9,1.101,4,1.5c1.2,0.5,3.5,1,3.8,2c0.3,1,0.2,2.5,0.4,3.101
				c0.2,0.6,1.7,1.1,2.4,1.299c0.7,0.201,0.6,0.301,0.6-0.5c0-0.799-0.3-1.5,0-2.199c0.3-0.7,1.2-0.2,2.1,0.1c0.9,0.301,3.9,1.6,5,2
				c1.1,0.4,1.2,0.6,1.4,1.9c0.2,1.3,0.2,2.6,0.8,2.9c0.6,0.299,1.6,0.199,2.2,0.799c0.6,0.601,1.5,2.5,1.6,5.801
				c0.1,3.3,0.3,6,0.3,6l2.1-0.801c0,0-1.2-8.299-0.3-11.1c0.9-2.8,3.3-6.1,4.9-7.8c1.6-1.7,14.1-12.399,16.8-14.2
				c2.7-1.8,20-11.4,25.2-13.1C89,104.7,96,102.8,96.3,102.7c0.1,1.4,0.199,3,0.4,4.7C97.1,112,98.5,125.701,98.5,126.1
				s0,3.101,0,3.101v0.6c0,0-2.6,0-4.199,0.699c-2.1,0.9-24.6,9.801-30.1,11.9c-5.5,2.1-16.9,6.5-25.6,9.9
				c-8.7,3.4-12.1,4.699-17.4,6.699c0,0-6.4,2.301-9.1,3.201c-2.7,0.899-4.5,0.899-4.5,1.6c0-0.1,0-0.2,0-0.301
				C7.4,157,5.9,139.6,5.4,131.701z M18.1,198.9c-1.2-2.5-7-13.5-8.9-18.199C7.3,176,7,174.3,7.4,172.5c0.5-1.699,0-4.5,0.2-6
				c0,1.101,0,2.5,0,3.201c0,1.299,1.7-0.301,2.2-0.4s5.6-1.801,5.6-1.801s64.1-24.1,74.9-28.399c5.5-2.2,7-2.601,9.1-2.601
				c0.7,0.101,0.7,9,0.4,10.801c-0.301,1.8-3.1,12.1-3.4,13.199c-0.3,1.101-3,11-6.8,24.601s-7.101,15.8-9.2,17.601
				c-2.1,1.799-13.2,5.699-15.9,6.5c-2.7,0.799-14.8,4.299-19.8,6.1c-5.1,1.8-11.6,3.4-11.7,3.4c-0.9-0.5-1.6-1.101-3.3-2
				C26.2,214.8,19.4,201.4,18.1,198.9z M113.5,213.5c-2.899,2.4-4,1-5.899,1.801c-1.899,0.8-34.7,11.699-39.399,12.6
				c-4.701,0.9-5-0.1-7-0.6s-19.5-5.9-24-7.1c-2.3-0.601-3.3-1.101-4.1-1.601l2.7,1.2c0,0,13.3-4.1,15.6-4.9
				c2.3-0.8,5.8-1.699,8.3-2.5c2.5-0.8,7.7-2.3,9.799-3.199c2.101-0.9,9.301-3,12.301-5.601s5.199-6.3,5.5-7.2
				c0.3-0.9,0.3-1.199,0.699-1.9c0.4-0.699,0.301-0.399,1.701,0.5c1.399,0.9,1.1,0.701,3.699,1.9c2.6,1.2,5.9,2.6,8.2,3.4
				c2.3,0.8,5.601,2.3,7.601,3c2,0.699,8.799,3.6,8.799,3.6C116.6,209.9,115.1,212.201,113.5,213.5z M118.1,206.8l0.7-1.7
				C118.6,205.701,118.3,206.3,118.1,206.8z M121.201,198.3c-0.701,2.4-1.5,4.699-2.301,6.699c0,0-2.5-0.699-3.699-1.199
				c-1.201-0.5-5.701-2.301-8-3.2c-2.4-0.899-4.301-1.7-6.101-2.399c-3.2-1.201-3.601-1.301-5.3-2c-1.301-0.5-5.301-2.5-5.801-3.801
				c-0.5-1.3,0.601-3.3,1.101-5.199c0.5-1.9,4.8-18,5.7-21.4s2.1-7.6,2.6-9.7s1.801-6.7,2.2-8.601c0.399-1.899,0.3-5.399,0.3-6.799
				c0-1.4-0.5-3.701-0.5-3.701c0.7,0.301,1.4,0.701,2.6,1.101c4.601,1.5,2.101,0.399,4.4,1.5c2.301,1.101,4.9,1.8,6.4,2.399
				c1.5,0.601,11.9,5.4,14.6,6.4c2.7,1,3.2,0.6,3.2,0.6c0.101,0.701,0.101,1.5,0.101,2.301C132.9,157.9,123.4,191,121.201,198.3z"/>
			<path fill="#FF1400" stroke="#FF1400" stroke-miterlimit="10" d="M7.7,163.5c0,0.301,0,2.9,0,2.9"/>
		</g>
		<path fill="#FF1400" stroke="#FF1400" stroke-miterlimit="10" d="M100.5,130.9c-1-0.5-2.199-0.8-2.199-0.8"/>
	</g>
	<path fill="#FF1400" stroke="#FF1400" stroke-miterlimit="10" d="M122.5,102.3h1.601c0,0,1.7,0.9,1.899,1.3
		c0.201,0.4,0.5,0.6,0.601,0.8c0.101,0.2-0.399,1.1-0.399,1.1s-0.5-0.2-1.201-0.7C124.4,104.5,122.5,102.3,122.5,102.3z"/>
</g>
</svg>
